# xmcd CD database file
#
# Track frame offsets:
#	150
#	12010
#	26725
#	39708
#	52837
#	66547
#	81654
#	97423
#	110464
#	124679
#	140320
#	154809
#	168080
#	180441
#	194131
#	207806
#	220442
#	236538
#	250052
#	265726
#	282195
#
# Disc length: 3946 seconds
#
# Revision: 1
# Processed by: cddbd v1.5.2PL0 Copyright (c) Steve Scherf et al.
# Submitted via: CDex 1.70beta2
#
DISCID=340f6815
DTITLE=Coleman Hawkins - Giants of Jazz Disc 1
DYEAR=1900
DGENRE=Jazz
TTITLE0=Dicty Blues: Fletcher Henderson and His Orchestra
TTITLE1=The Stampede: Fletcher Henderson and His Orchestra
TTITLE2=Clarinet Marmalade: Fletcher Henderson and His Orchestra 
TTITLE3=Hop Off: Fletcher Henderson and His Orchestra
TTITLE4=Wherever There’s a Will, Baby: McKinney’s Cotton Pickers
TTITLE5=Hello, Lola: Mound City Blue Blowers 
TTITLE6=One Hour: Mound City Blue Blowers
TTITLE7=Bugle Call Rag: The Chocolate Dandies
TTITLE8=Sugar Foot Stomp: Connie’s Inn Orchestra
TTITLE9=The Darktown Strutters’ Ball: Mound City Blue Blowers
TTITLE10=Honeysuckle Rose: Fletcher Henderson and His Orchestra
TTITLE11=Someday Sweetheart: Henry Allen-Coleman Hawkins and Their Orchestra 
TTITLE12=Wish I Could Shimmy Like My Sister Kate: Henry Allen-Coleman Hawkins and Their Orchestra 
TTITLE13=Sweet Sue-Just You: Spike Hughes and His Negro Orchestra 
TTITLE14=Donegal Cradle Song: Spike Hughes and His Negro Orchestra 
TTITLE15=Ain’tcha Got Music?: Henry Allen-Coleman Hawkins and Their Orchestra
TTITLE16=It’s the Talk of the Town: Fletcher Henderson and His Orchestra 
TTITLE17=Jamaica Shout: Coleman Hawkins and His Orchestra 
TTITLE18=Heartbreak Blues: Coleman Hawkins and His Orchestra
TTITLE19=I’ve Got to Sing a Torch Song: Fletcher Henderson and His Orchestra 
TTITLE20=Dark Clouds: Henry Allen-Coleman Hawkins and Their Orchestra
EXTD=
EXTT0=
EXTT1=
EXTT2=
EXTT3=
EXTT4=
EXTT5=
EXTT6=
EXTT7=
EXTT8=
EXTT9=
EXTT10=
EXTT11=
EXTT12=
EXTT13=
EXTT14=
EXTT15=
EXTT16=
EXTT17=
EXTT18=
EXTT19=
EXTT20=
PLAYORDER=
